<svg xmlns="http://www.w3.org/2000/svg" viewBox="-10.8 1.6 121.6 91.7">
  <text x="50" y="42" text-anchor="middle" fill="#F6F1E6" font-family="Barlow Condensed, Arial Narrow, sans-serif" font-weight="700" font-size="34" letter-spacing="1">FANGO</text><path fill="#F6F1E6" d="M22 52 q5 9 5 15 a7.5 7.5 0 0 1 -15 0 q0 -6 5 -15 Z"/><path fill="#F6F1E6" d="M44 60 q5 9 5 15 a7.5 7.5 0 0 1 -15 0 q0 -6 5 -15 Z"/><path fill="#F6F1E6" d="M66 54 q5 9 5 15 a7.5 7.5 0 0 1 -15 0 q0 -6 5 -15 Z"/><path fill="#F6F1E6" d="M86 62 q5 9 5 15 a7.5 7.5 0 0 1 -15 0 q0 -6 5 -15 Z"/>
</svg>
