<svg xmlns="http://www.w3.org/2000/svg" viewBox="-5.7 3.2 111.4 126.3">
  <path fill="#F6F1E6" d="M18 26 l6 -14 6 10 q10 -4 14 6 l4 14 q24 -2 32 10 q6 7 6 16 l2 26 h-10 l-4 -24 -14 4 -2 20 h-10 l2 -22 -14 -2 -4 24 h-10 l4 -28 q-10 -8 -8 -22 l-2 -14 q-6 -2 -6 -8 q0 -6 6 -6 Z"/><path fill="#F6F1E6" d="M78 52 q10 6 16 16 q-8 -2 -14 -8 Z"/><text x="50" y="116.8" text-anchor="middle" fill="#F6F1E6" font-family="Barlow Condensed, Arial Narrow, sans-serif" font-weight="700" font-size="19" letter-spacing="0.6">CABALGAR</text>
</svg>
