<svg xmlns="http://www.w3.org/2000/svg" viewBox="326.78 233.24 464.98 134.72">
  <path fill="#F6F1E6" d="M347.385 322.9L340.262 322.9Q339.944 322.9 339.944 322.582L339.944 322.582L340.071 278.889Q340.071 278.634 340.326 278.634L340.326 278.634L352.537 278.634Q358.388 278.634 361.791 282.196Q365.193 285.758 365.193 291.863L365.193 291.863Q365.193 296.379 363.412 299.686Q361.632 302.993 358.77 304.774Q355.908 306.555 352.537 306.555L352.537 306.555L347.703 306.555L347.703 322.582Q347.703 322.9 347.385 322.9L347.385 322.9M347.703 286.266L347.703 298.859L352.537 298.859Q354.572 298.859 356.067 296.919Q357.561 294.98 357.561 291.863L357.561 291.863Q357.561 289.383 356.226 287.793Q354.89 286.203 352.537 286.203L352.537 286.203L347.703 286.266"/><path fill="#F6F1E6" d="M380.139 323.536L380.139 323.536Q376.705 323.536 373.875 321.787Q371.044 320.038 369.327 317.144Q367.61 314.25 367.61 310.752L367.61 310.752L367.674 290.591Q367.674 287.093 369.359 284.231Q371.044 281.369 373.906 279.652Q376.768 277.935 380.139 277.935L380.139 277.935Q383.574 277.935 386.372 279.652Q389.17 281.369 390.856 284.231Q392.541 287.093 392.541 290.591L392.541 290.591L392.605 310.752Q392.605 314.25 390.919 317.144Q389.234 320.038 386.404 321.787Q383.574 323.536 380.139 323.536M380.139 315.84L380.139 315.84Q382.047 315.84 383.478 314.282Q384.909 312.724 384.909 310.752L384.909 310.752L384.846 290.591Q384.846 288.492 383.51 287.03Q382.174 285.567 380.139 285.567L380.139 285.567Q378.168 285.567 376.768 286.998Q375.369 288.429 375.369 290.591L375.369 290.591L375.369 310.752Q375.369 312.851 376.768 314.346Q378.168 315.84 380.139 315.84"/><path fill="#F6F1E6" d="M404.88 322.9L397.693 322.9Q397.438 322.9 397.438 322.582L397.438 322.582L397.566 278.889Q397.566 278.634 397.82 278.634L397.82 278.634L410.667 278.634Q414.102 278.634 416.995 280.32Q419.889 282.005 421.606 284.835Q423.324 287.666 423.324 291.227L423.324 291.227Q423.324 293.58 422.624 295.457Q421.924 297.333 420.97 298.637Q420.016 299.94 419.253 300.576L419.253 300.576Q422.688 304.392 422.688 309.544L422.688 309.544L422.751 322.582Q422.751 322.9 422.433 322.9L422.433 322.9L415.246 322.9Q414.992 322.9 414.992 322.709L414.992 322.709L414.992 309.544Q414.992 307.254 413.37 305.569Q411.748 303.884 409.395 303.884L409.395 303.884L405.198 303.884L405.134 322.582Q405.134 322.9 404.88 322.9L404.88 322.9M405.198 286.266L405.198 296.252L410.667 296.252Q412.639 296.252 414.165 294.789Q415.692 293.326 415.692 291.227L415.692 291.227Q415.692 289.192 414.197 287.729Q412.702 286.266 410.667 286.266L410.667 286.266L405.198 286.266"/><g transform="translate(442.7 246.4)" fill="#F6F1E6"><rect x="0.0" y="0.0" width="61.2" height="16.5"/><rect x="45.9" y="15.3" width="15.3" height="16.5"/><rect x="45.9" y="30.6" width="15.3" height="16.5"/><rect x="30.6" y="45.9" width="15.3" height="16.5"/><rect x="30.6" y="61.2" width="15.3" height="16.5"/><rect x="15.3" y="76.6" width="15.3" height="16.5"/><rect x="15.3" y="91.9" width="15.3" height="16.5"/></g><path fill="#F6F1E6" d="M546.463 322.9L538.767 322.9Q538.513 322.9 538.449 322.582L538.449 322.582L529.672 278.889Q529.609 278.634 529.927 278.634L529.927 278.634L537.114 278.634Q537.368 278.634 537.432 278.889L537.432 278.889L542.647 308.018L547.735 278.889Q547.798 278.634 548.053 278.634L548.053 278.634L555.176 278.634Q555.494 278.634 555.43 278.889L555.43 278.889L546.781 322.582Q546.717 322.9 546.463 322.9L546.463 322.9"/><path fill="#F6F1E6" d="M569.677 323.536L569.677 323.536Q566.242 323.536 563.412 321.787Q560.582 320.038 558.865 317.144Q557.148 314.25 557.148 310.752L557.148 310.752L557.211 290.591Q557.211 287.093 558.897 284.231Q560.582 281.369 563.444 279.652Q566.306 277.935 569.677 277.935L569.677 277.935Q573.111 277.935 575.91 279.652Q578.708 281.369 580.393 284.231Q582.079 287.093 582.079 290.591L582.079 290.591L582.142 310.752Q582.142 314.25 580.457 317.144Q578.772 320.038 575.941 321.787Q573.111 323.536 569.677 323.536M569.677 315.84L569.677 315.84Q571.585 315.84 573.016 314.282Q574.447 312.724 574.447 310.752L574.447 310.752L574.383 290.591Q574.383 288.492 573.048 287.03Q571.712 285.567 569.677 285.567L569.677 285.567Q567.705 285.567 566.306 286.998Q564.907 288.429 564.907 290.591L564.907 290.591L564.907 310.752Q564.907 312.851 566.306 314.346Q567.705 315.84 569.677 315.84"/><path fill="#F6F1E6" d="M599.696 322.9L592.509 322.9Q592.255 322.9 592.255 322.582L592.255 322.582L592.255 286.33L583.987 286.33Q583.669 286.33 583.669 286.012L583.669 286.012L583.732 278.889Q583.732 278.634 583.987 278.634L583.987 278.634L608.155 278.634Q608.473 278.634 608.473 278.889L608.473 278.889L608.473 286.012Q608.473 286.33 608.218 286.33L608.218 286.33L599.887 286.33L599.95 322.582Q599.95 322.9 599.696 322.9L599.696 322.9"/><path fill="#F6F1E6" d="M621.956 323.536L621.956 323.536Q618.522 323.536 615.691 321.787Q612.861 320.038 611.144 317.144Q609.427 314.25 609.427 310.752L609.427 310.752L609.49 290.591Q609.49 287.093 611.176 284.231Q612.861 281.369 615.723 279.652Q618.585 277.935 621.956 277.935L621.956 277.935Q625.39 277.935 628.189 279.652Q630.987 281.369 632.673 284.231Q634.358 287.093 634.358 290.591L634.358 290.591L634.422 310.752Q634.422 314.25 632.736 317.144Q631.051 320.038 628.221 321.787Q625.39 323.536 621.956 323.536M621.956 315.84L621.956 315.84Q623.864 315.84 625.295 314.282Q626.726 312.724 626.726 310.752L626.726 310.752L626.662 290.591Q626.662 288.492 625.327 287.03Q623.991 285.567 621.956 285.567L621.956 285.567Q619.984 285.567 618.585 286.998Q617.186 288.429 617.186 290.591L617.186 290.591L617.186 310.752Q617.186 312.851 618.585 314.346Q619.984 315.84 621.956 315.84"/><path fill="#F6F1E6" d="M650.067 323.536L650.067 323.536Q646.633 323.536 643.803 321.787Q640.972 320.038 639.287 317.144Q637.602 314.25 637.602 310.752L637.602 310.752L637.602 307.827Q637.602 307.509 637.92 307.509L637.92 307.509L645.043 307.509Q645.297 307.509 645.297 307.827L645.297 307.827L645.297 310.752Q645.297 312.851 646.696 314.346Q648.096 315.84 650.067 315.84L650.067 315.84Q652.039 315.84 653.438 314.314Q654.837 312.788 654.837 310.752L654.837 310.752Q654.837 308.399 651.784 306.682L651.784 306.682Q650.767 306.11 648.604 304.901Q646.442 303.693 644.534 302.612L644.534 302.612Q641.036 300.576 639.351 297.492Q637.665 294.407 637.665 290.528L637.665 290.528Q637.665 286.966 639.382 284.136Q641.1 281.306 643.93 279.652Q646.76 277.998 650.067 277.998L650.067 277.998Q653.438 277.998 656.268 279.684Q659.098 281.369 660.784 284.199Q662.469 287.03 662.469 290.528L662.469 290.528L662.469 295.743Q662.469 295.997 662.215 295.997L662.215 295.997L655.092 295.997Q654.837 295.997 654.837 295.743L654.837 295.743L654.774 290.528Q654.774 288.302 653.374 286.902Q651.975 285.503 650.067 285.503L650.067 285.503Q648.096 285.503 646.696 286.998Q645.297 288.492 645.297 290.528L645.297 290.528Q645.297 292.626 646.188 294.026Q647.078 295.425 649.431 296.697L649.431 296.697Q649.749 296.888 650.671 297.365Q651.594 297.842 652.675 298.446Q653.756 299.05 654.615 299.495Q655.473 299.94 655.664 300.068L655.664 300.068Q658.844 301.848 660.688 304.424Q662.533 307 662.533 310.752L662.533 310.752Q662.533 314.378 660.847 317.271Q659.162 320.165 656.332 321.851Q653.502 323.536 650.067 323.536"/><g transform="translate(678.6 258.0)"><path fill="#F6F1E6" fill-rule="evenodd" d="M 10 16 H 68 C 70 16 70 18 70 20 V 30 H 8 V 20 C 8 18 8 16 10 16 Z M 12 30 H 66 C 73 30 76 34 76 40 V 66 C 76 72 73 76 66 76 H 12 C 5 76 2 72 2 66 V 40 C 2 34 5 30 12 30 Z M 9 76 H 27 V 82 H 9 Z M 51 76 H 69 V 82 H 51 Z M 24 21 H 60 A 3 3 0 0 1 60 27 H 24 A 3 3 0 0 1 24 21 Z M 15 35 H 63 C 66 35 68 37 68 41 V 58 C 68 62 66 64 63 64 H 15 C 12 64 10 62 10 58 V 41 C 10 37 12 35 15 35 Z M 13 39 H 29 V 47 L 22.5 59 H 14 L 24 48 H 13 Z M 31 39 H 47 V 47 L 40.5 59 H 32 L 42 48 H 31 Z M 49 39 H 65 V 47 L 58.5 59 H 50 L 60 48 H 49 Z"/><path fill="#F6F1E6" d="M 36 6 L 49 3 L 52 8 L 53 27 L 37 27 Z"/><path fill="none" stroke="#F6F1E6" stroke-width="6" stroke-linecap="round" d="M 76 46 C 87 46 91 40 92 31"/><circle cx="92" cy="22" r="8" fill="#F6F1E6"/></g>
</svg>
